<svg xmlns="http://www.w3.org/2000/svg" xmlns:xlink="http://www.w3.org/1999/xlink" xmlns:inkscape="http://www.inkscape.org/namespaces/inkscape" version="1.1" width="111.597" height="105.818" viewBox="0 0 111.597 105.818">
<defs>
<path id="font_1_2" d="M.17199707 .71598818C.17199707 .7319946 .17199707 .75 .1519928 .75 .13198853 .75 .13198853 .7279968 .13198853 .71299746V-.2130127C.13198853-.2290039 .13198853-.25 .1519928-.25 .17199707-.25 .17199707-.23200989 .17199707-.21600342V.71598818M.36698915 .71299746C.36698915 .72898867 .36698915 .75 .34700013 .75 .32699586 .75 .32699586 .7319946 .32699586 .71598818V-.21600342C.32699586-.23200989 .32699586-.25 .34700013-.25 .36698915-.25 .36698915-.22801209 .36698915-.2130127V.71299746Z"/>
<path id="font_2_2" d="M.34999085 .056259157C.36099244 .015258789 .3959961-.0107421879 .43899537-.0107421879 .47399903-.0107421879 .49699403 .012252808 .5130005 .044265748 .5299988 .08027649 .54299929 .14129639 .54299929 .14329529 .54299929 .1532898 .5339966 .1532898 .5309906 .1532898 .5209961 .1532898 .519989 .14929199 .5169983 .13528443 .5029907 .07926941 .48399354 .011245728 .44198609 .011245728 .42099 .011245728 .41099549 .024261475 .41099549 .057266237 .41099549 .07926941 .4229889 .12628174 .43099977 .16130066L.45899964 .2693329C.46199037 .28433229 .47200013 .32234193 .47599793 .3373413 .48098756 .36035157 .4909973 .3983612 .4909973 .40437318 .4909973 .42237855 .47698976 .43138124 .46199037 .43138124 .45700074 .43138124 .43099977 .43037416 .4229889 .3963623 .4039917 .323349 .3600006 .14828491 .34799195 .09527588 .34700013 .091278079 .30699159 .011245728 .23399353 .011245728 .18199158 .011245728 .17199707 .056259157 .17199707 .09327698 .17199707 .14929199 .19999695 .22831726 .22599793 .29733277 .23799134 .3273468 .24299622 .34135438 .24299622 .36035157 .24299622 .405365 .21099854 .4423828 .16099549 .4423828 .06599426 .4423828 .0289917 .29733277 .0289917 .28833009 .0289917 .27833558 .038986207 .27833558 .040985109 .27833558 .050994874 .27833558 .051986696 .28033448 .056991579 .29634095 .08198547 .38336183 .11999512 .42037965 .1579895 .42037965 .16699219 .42037965 .18299866 .41937257 .18299866 .38735963 .18299866 .36335755 .17199707 .3343506 .1659851 .31933595 .1289978 .2203064 .10798645 .15829468 .10798645 .10928345 .10798645 .014251709 .1769867-.0107421879 .23098755-.0107421879 .29699708-.0107421879 .33299256 .03425598 .34999085 .056259157Z"/>
<path id="font_2_3" d="M.46798707 .37236024C.46798707 .42637635 .44198609 .4423828 .42399598 .4423828 .39898683 .4423828 .375 .41636659 .375 .3943634 .375 .38136292 .37998963 .3753662 .3909912 .36434938 .4119873 .3443451 .4249878 .31834413 .4249878 .28233338 .4249878 .24032593 .3639984 .011245728 .24699402 .011245728 .19599915 .011245728 .17298889 .04626465 .17298889 .09828186 .17298889 .15429688 .19999695 .22731018 .23098755 .31033326 .23799134 .3273468 .24299622 .34135438 .24299622 .36035157 .24299622 .405365 .21099854 .4423828 .16099549 .4423828 .066986087 .4423828 .0289917 .29733277 .0289917 .28833009 .0289917 .27833558 .038986207 .27833558 .040985109 .27833558 .050994874 .27833558 .051986696 .28033448 .056991579 .29634095 .085998538 .39736939 .1289978 .42037965 .1579895 .42037965 .1659851 .42037965 .18299866 .42037965 .18299866 .3883667 .18299866 .36335755 .17298889 .3363495 .1659851 .31834413 .12199402 .20230103 .10899353 .15629578 .10899353 .11328125 .10899353 .0052490236 .19699097-.0107421879 .24299622-.0107421879 .41099549-.0107421879 .46798707 .32034303 .46798707 .37236024Z"/>
<path id="font_1_1" d="M.6589966 .23046875C.6759949 .23046875 .69400027 .23046875 .69400027 .25045777 .69400027 .27046205 .6759949 .27046205 .6589966 .27046205H.117996219C.100997928 .27046205 .08299255 .27046205 .08299255 .25045777 .08299255 .23046875 .100997928 .23046875 .117996219 .23046875H.6589966Z"/>
<path id="font_2_1" d="M.45498658 .5001831C.45498658 .56614688 .43699647 .7050781 .33499146 .7050781 .19599915 .7050781 .041992189 .42323304 .041992189 .19425965 .041992189 .100250247 .070999149-.0107421879 .1619873-.0107421879 .30299378-.0107421879 .45498658 .27627564 .45498658 .5001831M.147995 .36328126C.16499329 .42723084 .18499756 .5071869 .22499085 .57814028 .2519989 .6271057 .2889862 .68307498 .33399964 .68307498 .3829956 .68307498 .3889923 .6191101 .3889923 .56214907 .3889923 .5131836 .3809967 .46220399 .35699464 .36328126H.147995M.34799195 .3312683C.33699037 .28527833 .31599427 .2002716 .27799989 .12826538 .24299622 .060256959 .20498657 .011245728 .1619873 .011245728 .1289978 .011245728 .10798645 .040252687 .10798645 .133255 .10798645 .17526245 .11399841 .23326111 .13999939 .3312683H.34799195Z"/>
</defs>
<path transform="matrix(1,0,0,-1,4.339,98.162)" stroke-width=".79701" stroke-linecap="butt" stroke-miterlimit="10" stroke-linejoin="miter" fill="none" stroke="#0000b3" d="M0 0 82.8462 20.71187"/>
<path transform="matrix(.97014,-.24251,-.24251,-.97014,87.185199,77.450138)" d="M6.46242 0C5.66881 .19443 2.18033 1.2962 0 2.49518V-2.49518C2.18033-1.2962 5.66881-.19443 6.46242 0Z" fill="#0000b3"/>
<path transform="matrix(.97014,-.24251,-.24251,-.97014,87.185199,77.450138)" stroke-width=".79701" stroke-linecap="butt" stroke-miterlimit="10" stroke-linejoin="miter" fill="none" stroke="#0000b3" d="M6.46242 0C5.66881 .19443 2.18033 1.2962 0 2.49518V-2.49518C2.18033-1.2962 5.66881-.19443 6.46242 0Z"/>
<use data-text="&#x2225;" xlink:href="#font_1_2" transform="matrix(9.9626,0,0,-9.9626,41.86,98.014)"/>
<use data-text="u" xlink:href="#font_2_2" transform="matrix(9.9626,0,0,-9.9626,46.8413,98.014)"/>
<use data-text="&#x2225;" xlink:href="#font_1_2" transform="matrix(9.9626,0,0,-9.9626,52.54987,98.014)"/>
<path transform="matrix(1,0,0,-1,4.339,98.162)" stroke-width=".79701" stroke-linecap="butt" stroke-miterlimit="10" stroke-linejoin="miter" fill="none" stroke="#b30000" d="M0 0 36.25768 77.69542"/>
<path transform="matrix(.42288,-.90617,-.90617,-.42288,40.59668,20.466607)" d="M6.46242 0C5.66881 .19443 2.18033 1.2962 0 2.49518V-2.49518C2.18033-1.2962 5.66881-.19443 6.46242 0Z" fill="#b30000"/>
<path transform="matrix(.42288,-.90617,-.90617,-.42288,40.59668,20.466607)" stroke-width=".79701" stroke-linecap="butt" stroke-miterlimit="10" stroke-linejoin="miter" fill="none" stroke="#b30000" d="M6.46242 0C5.66881 .19443 2.18033 1.2962 0 2.49518V-2.49518C2.18033-1.2962 5.66881-.19443 6.46242 0Z"/>
<use data-text="&#x2225;" xlink:href="#font_1_2" transform="matrix(9.9626,0,0,-9.9626,5.313,58.133008)"/>
<use data-text="v" xlink:href="#font_2_3" transform="matrix(9.9626,0,0,-9.9626,10.2943,58.133008)"/>
<use data-text="&#x2225;" xlink:href="#font_1_2" transform="matrix(9.9626,0,0,-9.9626,15.484816,58.133008)"/>
<path transform="matrix(1,0,0,-1,4.339,98.162)" stroke-width=".79701" stroke-linecap="butt" stroke-miterlimit="10" stroke-linejoin="miter" fill="none" stroke="#7f807f" d="M90.7097 22.67752 44.81784 78.76747"/>
<path transform="matrix(-.63321,-.77391,-.77391,.63321,49.15686,19.394532)" d="M6.46242 0C5.66881 .19443 2.18033 1.2962 0 2.49518V-2.49518C2.18033-1.2962 5.66881-.19443 6.46242 0Z" fill="#7f807f"/>
<path transform="matrix(-.63321,-.77391,-.77391,.63321,49.15686,19.394532)" stroke-width=".79701" stroke-linecap="butt" stroke-miterlimit="10" stroke-linejoin="miter" fill="none" stroke="#7f807f" d="M6.46242 0C5.66881 .19443 2.18033 1.2962 0 2.49518V-2.49518C2.18033-1.2962 5.66881-.19443 6.46242 0Z"/>
<use data-text="&#x2225;" xlink:href="#font_1_2" transform="matrix(9.9626,0,0,-9.9626,73.255,38.094)"/>
<use data-text="v" xlink:href="#font_2_3" transform="matrix(9.9626,0,0,-9.9626,78.2363,38.094)"/>
<use data-text="&#x2212;" xlink:href="#font_1_1" transform="matrix(9.9626,0,0,-9.9626,85.63851,38.094)"/>
<use data-text="u" xlink:href="#font_2_2" transform="matrix(9.9626,0,0,-9.9626,95.60111,38.094)"/>
<use data-text="&#x2225;" xlink:href="#font_1_2" transform="matrix(9.9626,0,0,-9.9626,101.309688,38.094)"/>
<path transform="matrix(1,0,0,-1,4.339,98.162)" stroke-width=".3985" stroke-linecap="butt" stroke-miterlimit="10" stroke-linejoin="miter" fill="none" stroke="#000000" d="M19.25014 4.812C17.8003 10.61205 13.80875 15.45268 8.3911 17.98091"/>
<use data-text="&#x03b8;" xlink:href="#font_2_1" transform="matrix(9.9626,0,0,-9.9626,24.824002,82.686008)"/>
<use data-text="u" xlink:href="#font_2_2" transform="matrix(9.9626,0,0,-9.9626,98.56699,83.29401)"/>
<use data-text="v" xlink:href="#font_2_3" transform="matrix(9.9626,0,0,-9.9626,41.43,9.603004)"/>
</svg>
