<svg xmlns="http://www.w3.org/2000/svg" xmlns:xlink="http://www.w3.org/1999/xlink" xmlns:inkscape="http://www.inkscape.org/namespaces/inkscape" version="1.1" width="179.925" height="147.241" viewBox="0 0 179.925 147.241">
<defs>
<path id="font_1_3" d="M.33399964 .30233766C.33999635 .32835389 .36299134 .42037965 .43299867 .42037965 .43798829 .42037965 .46199037 .42037965 .48298646 .40734864 .45498658 .402359 .43499757 .37734986 .43499757 .35334779 .43499757 .33735658 .44599916 .31835938 .47299195 .31835938 .49499513 .31835938 .5269928 .3363495 .5269928 .37635804 .5269928 .42837525 .46798707 .4423828 .43399049 .4423828 .37599183 .4423828 .34098817 .38935853 .32899476 .36634828 .3039856 .43237306 .25 .4423828 .22099304 .4423828 .116989139 .4423828 .05999756 .3133545 .05999756 .28834535 .05999756 .27833558 .069992069 .27833558 .07199097 .27833558 .07998657 .27833558 .08299255 .28033448 .084991458 .28933717 .11898804 .39535523 .18499756 .42037965 .21899414 .42037965 .23799134 .42037965 .272995 .4113617 .272995 .35334779 .272995 .32235719 .2559967 .25532533 .21899414 .11528015 .20298767 .053268434 .16799927 .011245728 .12399292 .011245728 .117996219 .011245728 .09498596 .011245728 .07398987 .024276734 .09899902 .029266358 .12098694 .05027771 .12098694 .07827759 .12098694 .105270389 .09899902 .11328125 .083999637 .11328125 .053985597 .11328125 .0289917 .08728027 .0289917 .055267335 .0289917 .009246826 .07899475-.0107421879 .12298584-.0107421879 .18899536-.0107421879 .22499085 .059280397 .22799683 .0652771 .23999024 .028274537 .27598573-.0107421879 .33599855-.0107421879 .43899537-.0107421879 .49598695 .118270877 .49598695 .14328003 .49598695 .1532898 .4869995 .1532898 .48399354 .1532898 .47499085 .1532898 .47299195 .14929199 .47099305 .14228821 .43798829 .03527832 .36999513 .011245728 .33799745 .011245728 .29899598 .011245728 .2829895 .043273927 .2829895 .07727051 .2829895 .09927368 .2889862 .121276859 .2999878 .16529846L.33399964 .30233766Z"/>
<path id="font_1_4" d="M.48599244 .38136292C.48999024 .39537049 .48999024 .39736939 .48999024 .40437318 .48999024 .42237855 .47599793 .43138124 .46099855 .43138124 .45098878 .43138124 .43499757 .42536927 .42599488 .41036988 .42399598 .405365 .41600038 .37435914 .4119873 .35635377 .40499879 .33035279 .397995 .30334474 .3919983 .27633668L.34700013 .09628296C.34298707 .08126831 .2999878 .011245728 .23399353 .011245728 .18299866 .011245728 .17199707 .055267335 .17199707 .0922699 .17199707 .1382904 .18899536 .20030213 .22299195 .28833009 .23899842 .3293457 .24299622 .3403473 .24299622 .36035157 .24299622 .405365 .21099854 .4423828 .16099549 .4423828 .06599426 .4423828 .0289917 .29733277 .0289917 .28833009 .0289917 .27833558 .038986207 .27833558 .040985109 .27833558 .050994874 .27833558 .051986696 .28033448 .056991579 .29634095 .083999637 .3903656 .12399292 .42037965 .1579895 .42037965 .1659851 .42037965 .18299866 .42037965 .18299866 .3883667 .18299866 .36335755 .17298889 .3373413 .1659851 .31834413 .12599182 .21231079 .10798645 .1552887 .10798645 .10827637 .10798645 .019256592 .17098999-.0107421879 .22999573-.0107421879 .2689972-.0107421879 .30299378 .0062561037 .33099366 .03425598 .31799317-.017745972 .30599977-.06674194 .2659912-.11973572 .23999024-.15385437 .20199585-.18309021 .1559906-.18309021 .14199829-.18309021 .09700012-.18005371 .07998657-.14074707 .09599304-.14074707 .10899353-.14074707 .12298584-.1287384 .1329956-.11973572 .14299011-.10673523 .14299011-.08773804 .14299011-.056747438 .115997318-.052734376 .10598755-.052734376 .08299255-.052734376 .049987794-.068740848 .049987794-.11773682 .049987794-.16796875 .09399414-.20507813 .1559906-.20507813 .25898744-.20507813 .3619995-.11373901 .3899994-.00074768069L.48599244 .38136292Z"/>
<path id="font_2_2" d="M.17199707 .71598818C.17199707 .7319946 .17199707 .75 .1519928 .75 .13198853 .75 .13198853 .7279968 .13198853 .71299746V-.2130127C.13198853-.2290039 .13198853-.25 .1519928-.25 .17199707-.25 .17199707-.23200989 .17199707-.21600342V.71598818M.36698915 .71299746C.36698915 .72898867 .36698915 .75 .34700013 .75 .32699586 .75 .32699586 .7319946 .32699586 .71598818V-.21600342C.32699586-.23200989 .32699586-.25 .34700013-.25 .36698915-.25 .36698915-.22801209 .36698915-.2130127V.71299746Z"/>
<path id="font_1_2" d="M.46798707 .37236024C.46798707 .42637635 .44198609 .4423828 .42399598 .4423828 .39898683 .4423828 .375 .41636659 .375 .3943634 .375 .38136292 .37998963 .3753662 .3909912 .36434938 .4119873 .3443451 .4249878 .31834413 .4249878 .28233338 .4249878 .24032593 .3639984 .011245728 .24699402 .011245728 .19599915 .011245728 .17298889 .04626465 .17298889 .09828186 .17298889 .15429688 .19999695 .22731018 .23098755 .31033326 .23799134 .3273468 .24299622 .34135438 .24299622 .36035157 .24299622 .405365 .21099854 .4423828 .16099549 .4423828 .066986087 .4423828 .0289917 .29733277 .0289917 .28833009 .0289917 .27833558 .038986207 .27833558 .040985109 .27833558 .050994874 .27833558 .051986696 .28033448 .056991579 .29634095 .085998538 .39736939 .1289978 .42037965 .1579895 .42037965 .1659851 .42037965 .18299866 .42037965 .18299866 .3883667 .18299866 .36335755 .17298889 .3363495 .1659851 .31834413 .12199402 .20230103 .10899353 .15629578 .10899353 .11328125 .10899353 .0052490236 .19699097-.0107421879 .24299622-.0107421879 .41099549-.0107421879 .46798707 .32034303 .46798707 .37236024Z"/>
<path id="font_2_1" d="M.15899658 .71398928C.15899658 .7319946 .15899658 .75 .13899231 .75 .11898804 .75 .11898804 .7319946 .11898804 .71398928V-.21400452C.11898804-.23200989 .11898804-.25 .13899231-.25 .15899658-.25 .15899658-.23200989 .15899658-.21400452V.71398928Z"/>
<path id="font_3_1" d="M.33499146 .63612368C.33499146 .6630554 .33299256 .6640625 .30499269 .6640625 .24099732 .6014404 .1499939 .6004486 .10899353 .6004486V.5644531C.1329956 .5644531 .19898987 .5644531 .2539978 .592453V.08203125C.2539978 .04899597 .2539978 .035995485 .1539917 .035995485H.115997318V0C.13398743 .0009918213 .25698854 .0039978029 .2939911 .0039978029 .32499696 .0039978029 .45098878 .0009918213 .47299195 0V.035995485H.43499757C.33499146 .035995485 .33499146 .04899597 .33499146 .08203125V.63612368Z"/>
<path id="font_3_2" d="M.5049896 .18203736H.47099305C.46798707 .16001892 .45799256 .100997928 .44499208 .09098816 .43699647 .084991458 .3600006 .084991458 .34599305 .084991458H.1619873C.2669983 .17803955 .3019867 .20603943 .3619995 .25306703 .43598939 .312088 .5049896 .374115 .5049896 .46914674 .5049896 .5900879 .39898683 .6640625 .2709961 .6640625 .14698792 .6640625 .06298828 .57710269 .06298828 .4851532 .06298828 .43414308 .10598755 .42915345 .115997318 .42915345 .13999939 .42915345 .16899109 .44615174 .16899109 .48214723 .16899109 .5001526 .1619873 .53515627 .10998535 .53515627 .14099121 .6060791 .20899964 .62805178 .2559967 .62805178 .35598756 .62805178 .4079895 .5501404 .4079895 .46914674 .4079895 .38212586 .34599305 .3130951 .31399537 .27708436L.07299805 .038986207C.06298828 .02999878 .06298828 .027999878 .06298828 0H.47499085L.5049896 .18203736Z"/>
<path id="font_4_1" d="M.33099366-.2400055C.33099366-.23701477 .33099366-.23500061 .31399537-.21800232 .18899536-.0920105 .15699768 .09700012 .15699768 .25 .15699768 .42399598 .19499207 .59799197 .31799317 .72299197 .33099366 .73498538 .33099366 .7369995 .33099366 .73999026 .33099366 .746994 .32699586 .75 .32099916 .75 .31098939 .75 .22099304 .6819916 .1619873 .5549927 .11099243 .44499208 .09899902 .33399964 .09899902 .25 .09899902 .17199707 .10998535 .050994874 .16499329-.06201172 .22499085-.18501282 .31098939-.25 .32099916-.25 .32699586-.25 .33099366-.24700928 .33099366-.2400055Z"/>
<path id="font_1_1" d="M.20298767 .0009918213C.20298767 .066986087 .17799378 .10598755 .13899231 .10598755 .10598755 .10598755 .085998538 .08099365 .085998538 .052993776 .085998538 .025985718 .10598755 0 .13899231 0 .15098572 0 .1639862 .0039978029 .17399597 .0129852299 .1769867 .01499939 .17799378 .015991211 .1789856 .015991211 .17999268 .015991211 .18099976 .01499939 .18099976 .0009918213 .18099976-.07316589 .1459961-.13328552 .11299133-.16635132 .101989749-.17736817 .101989749-.17936707 .101989749-.18237305 .101989749-.18936157 .10699463-.19335938 .11199951-.19335938 .12298584-.19335938 .20298767-.116256717 .20298767 .0009918213Z"/>
<path id="font_4_2" d="M.2889862 .25C.2889862 .32798768 .27799989 .44898988 .22299195 .56199648 .16299439 .68499758 .07699585 .75 .066986087 .75 .06098938 .75 .056991579 .74598696 .056991579 .73999026 .056991579 .7369995 .056991579 .73498538 .07598877 .71699526 .17399597 .6179962 .23098755 .45899964 .23098755 .25 .23098755 .07899475 .19400025-.09700012 .069992069-.2230072 .056991579-.23500061 .056991579-.23701477 .056991579-.2400055 .056991579-.2460022 .06098938-.25 .066986087-.25 .07699585-.25 .16699219-.18200684 .22599793-.055007936 .2769928 .054992677 .2889862 .16600037 .2889862 .25Z"/>
</defs>
<path transform="matrix(1,0,0,-1,23.666,128.446)" stroke-width=".3985" stroke-linecap="butt" stroke-miterlimit="10" stroke-linejoin="miter" fill="none" stroke="#7f807f" d="M-14.17339 0H137.1512"/>
<path transform="matrix(1,0,0,-1,160.8172,128.446)" d="M3.7613 0C3.2994 .1127 1.26901 .75136 0 1.44638V-1.44638C1.26901-.75136 3.2994-.1127 3.7613 0Z" fill="#7f807f"/>
<path transform="matrix(1,0,0,-1,160.8172,128.446)" stroke-width=".3985" stroke-linecap="butt" stroke-miterlimit="10" stroke-linejoin="miter" fill="none" stroke="#7f807f" d="M3.7613 0C3.2994 .1127 1.26901 .75136 0 1.44638V-1.44638C1.26901-.75136 3.2994-.1127 3.7613 0Z"/>
<use data-text="x" xlink:href="#font_1_3" transform="matrix(9.9626,0,0,-9.9626,168.918,130.59)" fill="#7f807f"/>
<path transform="matrix(1,0,0,-1,23.666,128.446)" stroke-width=".3985" stroke-linecap="butt" stroke-miterlimit="10" stroke-linejoin="miter" fill="none" stroke="#7f807f" d="M0-14.17339V108.80438"/>
<path transform="matrix(0,-1,-1,-0,23.666,19.641617)" d="M3.7613 0C3.2994 .1127 1.26901 .75136 0 1.44638V-1.44638C1.26901-.75136 3.2994-.1127 3.7613 0Z" fill="#7f807f"/>
<path transform="matrix(0,-1,-1,-0,23.666,19.641617)" stroke-width=".3985" stroke-linecap="butt" stroke-miterlimit="10" stroke-linejoin="miter" fill="none" stroke="#7f807f" d="M3.7613 0C3.2994 .1127 1.26901 .75136 0 1.44638V-1.44638C1.26901-.75136 3.2994-.1127 3.7613 0Z"/>
<use data-text="y" xlink:href="#font_1_4" transform="matrix(9.9626,0,0,-9.9626,21.045,9.602997)" fill="#7f807f"/>
<path transform="matrix(1,0,0,-1,23.666,128.446)" stroke-width=".3985" stroke-linecap="butt" stroke-dasharray="2.98883,2.98883" stroke-miterlimit="10" stroke-linejoin="miter" fill="none" stroke="#7f807f" d="M113.38724 85.04042V0"/>
<path transform="matrix(1,0,0,-1,23.666,128.446)" stroke-width=".3985" stroke-linecap="butt" stroke-dasharray="2.98883,2.98883" stroke-miterlimit="10" stroke-linejoin="miter" fill="none" stroke="#7f807f" d="M0 85.04042H113.38724"/>
<path transform="matrix(1,0,0,-1,23.666,128.446)" stroke-width=".79701" stroke-linecap="butt" stroke-miterlimit="10" stroke-linejoin="miter" fill="none" stroke="#0000b3" d="M0 0 106.90305 80.17719"/>
<path transform="matrix(.79997,-.59999,-.59999,-.79997,130.56903,48.268808)" d="M6.46242 0C5.66881 .19443 2.18033 1.2962 0 2.49518V-2.49518C2.18033-1.2962 5.66881-.19443 6.46242 0Z" fill="#0000b3"/>
<path transform="matrix(.79997,-.59999,-.59999,-.79997,130.56903,48.268808)" stroke-width=".79701" stroke-linecap="butt" stroke-miterlimit="10" stroke-linejoin="miter" fill="none" stroke="#0000b3" d="M6.46242 0C5.66881 .19443 2.18033 1.2962 0 2.49518V-2.49518C2.18033-1.2962 5.66881-.19443 6.46242 0Z"/>
<use data-text="&#x2225;" xlink:href="#font_2_2" transform="matrix(9.9626,0,0,-9.9626,61.491,79.715999)"/>
<use data-text="v" xlink:href="#font_1_2" transform="matrix(9.9626,0,0,-9.9626,66.4723,79.715999)"/>
<use data-text="&#x2225;" xlink:href="#font_2_2" transform="matrix(9.9626,0,0,-9.9626,71.66281,79.715999)"/>
<use data-text="|" xlink:href="#font_2_1" transform="matrix(9.9626,0,0,-9.9626,72.942,139.437)"/>
<use data-text="v" xlink:href="#font_1_2" transform="matrix(9.9626,0,0,-9.9626,75.7116,139.437)"/>
<use data-text="1" xlink:href="#font_3_1" transform="matrix(6.9738,0,0,-6.9738,80.539,140.93199)"/>
<use data-text="|" xlink:href="#font_2_1" transform="matrix(9.9626,0,0,-9.9626,85.008,139.437)"/>
<use data-text="|" xlink:href="#font_2_1" transform="matrix(9.9626,0,0,-9.9626,5.3129999,88.41699)"/>
<use data-text="v" xlink:href="#font_1_2" transform="matrix(9.9626,0,0,-9.9626,8.082603,88.41699)"/>
<use data-text="2" xlink:href="#font_3_2" transform="matrix(6.9738,0,0,-6.9738,12.91,89.910999)"/>
<use data-text="|" xlink:href="#font_2_1" transform="matrix(9.9626,0,0,-9.9626,17.379,88.41699)"/>
<use data-text="(" xlink:href="#font_4_1" transform="matrix(9.9626,0,0,-9.9626,140.57199,45.896997)"/>
<use data-text="v" xlink:href="#font_1_2" transform="matrix(9.9626,0,0,-9.9626,144.44745,45.896997)"/>
<use data-text="1" xlink:href="#font_3_1" transform="matrix(6.9738,0,0,-6.9738,149.275,47.391)"/>
<use data-text="," xlink:href="#font_1_1" transform="matrix(9.9626,0,0,-9.9626,153.74399,45.896997)"/>
<use data-text="v" xlink:href="#font_1_2" transform="matrix(9.9626,0,0,-9.9626,158.17736,45.896997)"/>
<use data-text="2" xlink:href="#font_3_2" transform="matrix(6.9738,0,0,-6.9738,163.00099,47.391)"/>
<use data-text=")" xlink:href="#font_4_2" transform="matrix(9.9626,0,0,-9.9626,167.471,45.896997)"/>
<path transform="matrix(1,0,0,-1,23.666,128.446)" stroke-width=".3985" stroke-linecap="butt" stroke-miterlimit="10" stroke-linejoin="miter" fill="none" stroke="#000000" d="M104.88309 0V8.50412H113.38724"/>
</svg>
