<svg xmlns="http://www.w3.org/2000/svg" xmlns:xlink="http://www.w3.org/1999/xlink" xmlns:inkscape="http://www.inkscape.org/namespaces/inkscape" version="1.1" width="195.644" height="103.333" viewBox="0 0 195.644 103.333">
<defs>
<path id="font_1_3" d="M.2630005-.16134644C.19898987-.16134644 .18699646-.16134644 .18699646-.11618042V.049240114C.23399353-.0017700195 .2849884-.009765625 .31698609-.009765625 .44400025-.009765625 .55400088 .088256839 .55400088 .2163086 .55400088 .34136964 .45298768 .44140626 .33198548 .44140626 .29299928 .44140626 .23498535 .43139649 .18399048 .37937928V.44140626L.034988405 .43040467V.39738465C.10598755 .39738465 .11099243 .39138795 .11099243 .34936524V-.11618042C.11099243-.16134644 .09899902-.16134644 .034988405-.16134644V-.19433594C.07798767-.19134522 .12199402-.19134522 .14898682-.19134522 .17799378-.19134522 .21998596-.19134522 .2630005-.19433594V-.16134644M.18699646 .33335877C.20999146 .37338258 .2599945 .4104004 .32299806 .4104004 .3999939 .4104004 .46499635 .32536317 .46499635 .2163086 .46499635 .101257327 .3929901 .018234253 .31199647 .018234253 .2769928 .018234253 .23098755 .033233644 .19898987 .08325195 .18699646 .1002655 .18699646 .101257327 .18699646 .120269779V.33335877Z"/>
<path id="font_1_4" d="M.18399048 .22821045C.18399048 .30329896 .21499634 .4113922 .31098939 .4133911 .30499269 .4093933 .29499818 .4013977 .29499818 .3783722 .29499818 .34735108 .31900025 .33332826 .33898927 .33332826 .36299134 .33332826 .38398744 .34934999 .38398744 .3783722 .38398744 .4133911 .35198976 .44140626 .30799867 .44140626 .24299622 .44140626 .19898987 .39239503 .17799378 .33633424H.1769867V.44140626L.034988405 .43040467V.3973999C.102996829 .3973999 .11099243 .39039613 .11099243 .3413391V.078048709C.11099243 .032989503 .09899902 .032989503 .034988405 .032989503V0C.07398987 .0029907227 .1289978 .0029907227 .15299988 .0029907227 .21199036 .0029907227 .21398926 .0029907227 .2789917 0V.032989503H.25898744C.18598938 .032989503 .18399048 .044006349 .18399048 .08004761V.22821045Z"/>
<path id="font_1_2" d="M.5 .21325684C.5 .3382721 .39698792 .44628907 .2649994 .44628907 .1329956 .44628907 .02999878 .3382721 .02999878 .21325684 .02999878 .08824158 .13699341-.009765625 .2649994-.009765625 .3939972-.009765625 .5 .08824158 .5 .21325684M.2649994 .021224976C.21099854 .021224976 .16899109 .047225954 .14698792 .082229617 .12199402 .12324524 .11898804 .17224121 .11898804 .22225952 .11898804 .2602539 .11898804 .32026673 .1499939 .363266 .17599488 .3982849 .21798706 .41827394 .2649994 .41827394 .31698609 .41827394 .3600006 .39328004 .3829956 .35827638 .4099884 .31626893 .41099549 .2622528 .41099549 .22225952 .41099549 .17625427 .40899659 .12124634 .3809967 .07923889 .35398866 .039230348 .30899049 .021224976 .2649994 .021224976Z"/>
<path id="font_1_1" d="M.22698975 .61586C.22698975 .64686587 .20199585 .671875 .17098999 .671875 .14099121 .671875 .115997318 .6478729 .115997318 .61686709 .115997318 .5828705 .14299011 .5608673 .17098999 .5608673 .20399475 .5608673 .22698975 .5878601 .22698975 .61586M.069992069 .43040467V.3973999C.14498902 .3973999 .1539917 .39039613 .1539917 .3413391V-.04798889C.1539917-.075027469 .1499939-.17610169 .08099365-.17610169 .06599426-.17610169 .04399109-.17210388 .0309906-.167099 .036987306-.1651001 .057998659-.15208435 .057998659-.124069217 .057998659-.0970459 .038986207-.07702637 .010986328-.07702637-.014007568-.07702637-.036010744-.09403992-.036010744-.12506104-.036010744-.17610169 .019989014-.20410156 .08198547-.20410156 .1619873-.20410156 .22698975-.14007569 .22698975-.04598999V.44140626L.069992069 .43040467Z"/>
<path id="font_2_1" d="M.57299807 .359375C.57299807 .43139649 .5319977 .44239808 .5189972 .44239808 .48999024 .44239808 .46299745 .4113922 .46299745 .38739015 .46299745 .3683777 .47599793 .35838319 .48199464 .3533783 .5019989 .33836366 .519989 .31436158 .519989 .27633668 .519989 .22431946 .44799806 .023223877 .33099366 .023223877 .24398804 .023223877 .24398804 .09326172 .24398804 .11227417 .24398804 .1552887 .2579956 .20030213 .30099488 .3073578 .30899049 .32836915 .31199647 .33636476 .31199647 .35437013 .31199647 .4104004 .26098634 .44140626 .21199036 .44140626 .10998535 .44140626 .06098938 .3083496 .06098938 .28733827 .06098938 .28234864 .06498718 .27334596 .07899475 .27334596 .09298706 .27334596 .09599304 .27934266 .09899902 .28834535 .1269989 .38339234 .1789856 .4084015 .20799256 .4084015 .22799683 .4084015 .23498535 .395401 .23498535 .37239076 .23498535 .3513794 .22200012 .3173523 .21099854 .29034425 .16499329 .17529297 .16499329 .14527893 .16499329 .12426758 .16499329 .017227173 .2559967-.009765625 .32699586-.009765625 .49398805-.009765625 .57299807 .2603302 .57299807 .359375Z"/>
<path id="font_3_1" d="M.397995 .63591006C.397995 .6660156 .394989 .6660156 .3619995 .6660156 .29100038 .6016083 .17999268 .6016083 .1599884 .6016083H.14299011V.5576172H.1599884C.18299866 .5576172 .24798584 .5606079 .30599977 .58561709V.08596802C.30599977 .054977418 .30599977 .04399109 .19999695 .04399109H.1499939V0C.20498657 .0039978029 .2939911 .0039978029 .35198976 .0039978029 .4099884 .0039978029 .49899293 .0039978029 .55400088 0V.04399109H.5039978C.397995 .04399109 .397995 .054977418 .397995 .08596802V.63591006Z"/>
<path id="font_4_1" d="M.49699403 .36437989C.49699403 .44239808 .45199586 .44239808 .44799806 .44239808 .42399598 .44239808 .3959961 .4163971 .3959961 .39038087 .3959961 .3743744 .4039917 .36738587 .41299439 .359375 .43598939 .33937074 .44999696 .3113556 .44999696 .27934266 .44999696 .23332215 .38398744 .018234253 .2689972 .018234253 .22599793 .018234253 .19099427 .041229249 .19099427 .104263309 .19099427 .1592865 .22099304 .23832703 .24499512 .2983551 .25698854 .33036805 .2599945 .33836366 .2599945 .35636903 .2599945 .4104004 .21598816 .44140626 .16999817 .44140626 .070999149 .44140626 .02999878 .300354 .02999878 .28834535 .02999878 .27934266 .036987306 .27534486 .04499817 .27534486 .057998659 .27534486 .05899048 .28134156 .06199646 .29135133 .08799744 .37838746 .1309967 .4133911 .16699219 .4133911 .18199158 .4133911 .19099427 .40438844 .19099427 .38038636 .19099427 .3573761 .18199158 .33436585 .17199707 .3093567 .12298584 .18330384 .11898804 .15028382 .11898804 .119277957 .11898804 .010223389 .20799256-.009765625 .2649994-.009765625 .43099977-.009765625 .49699403 .28834535 .49699403 .36437989Z"/>
<path id="font_5_1" d="M.5379944 .18702698H.5009918C.49899293 .17301941 .4889984 .10699463 .47399903 .09599304 .46699525 .08999634 .38598634 .08999634 .37199403 .08999634H.18499756L.31298829 .19403076C.34700013 .22103882 .43598939 .28504945 .46699525 .31506349 .49699403 .3450775 .5379944 .39608766 .5379944 .46710206 .5379944 .5920563 .4249878 .66503909 .29100038 .66503909 .1619873 .66503909 .07199097 .58006289 .07199097 .48609925 .07199097 .43510438 .114990238 .42910768 .12599182 .42910768 .15098572 .42910768 .17999268 .44709779 .17999268 .48310853 .17999268 .50509646 .16699219 .5371094 .12298584 .5371094 .1459961 .5880585 .20698548 .6260376 .27598573 .6260376 .3809967 .6260376 .43699647 .5480957 .43699647 .46710206 .43699647 .39608766 .3899994 .32305909 .31999208 .25904847L.08299255 .041992189C.07299805 .03199768 .07199097 .0309906 .07199097 0H.5069885L.5379944 .18702698Z"/>
<path id="font_6_2" d="M.46199037 .33935548C.46699525 .36135865 .47698976 .3983612 .47698976 .40437318 .47698976 .42237855 .46299745 .43138124 .44799806 .43138124 .43598939 .43138124 .41799928 .42337037 .41099549 .4033661 .4079895 .3963623 .36099244 .205307 .35398866 .17930603 .34700013 .14929199 .34498597 .13128662 .34498597 .11328125 .34498597 .10227966 .34498597 .10028076 .34599305 .09527588 .32299806 .042266847 .29299928 .011245728 .2539978 .011245728 .17399597 .011245728 .17399597 .08526611 .17399597 .10227966 .17399597 .1342926 .1789856 .17329407 .22599793 .29634095 .23699951 .32633973 .24299622 .3403473 .24299622 .36035157 .24299622 .405365 .20999146 .4423828 .16099549 .4423828 .06599426 .4423828 .0289917 .29733277 .0289917 .28833009 .0289917 .27833558 .038986207 .27833558 .040985109 .27833558 .050994874 .27833558 .051986696 .28033448 .056991579 .29634095 .083999637 .38935853 .12298584 .42037965 .1579895 .42037965 .16699219 .42037965 .18299866 .41937257 .18299866 .38735963 .18299866 .36235047 .17199707 .3343506 .16499329 .31733705 .12098694 .1993103 .10899353 .1532898 .10899353 .11528015 .10899353 .024261475 .17599488-.0107421879 .25099183-.0107421879 .2679901-.0107421879 .31498719-.0107421879 .35499574 .059265138 .3809967-.0047454836 .44999696-.0107421879 .47999574-.0107421879 .5549927-.0107421879 .598999 .052261354 .625 .11227417 .6589966 .19030762 .69099429 .32434083 .69099429 .37236024 .69099429 .42736817 .6639862 .4423828 .6469879 .4423828 .621994 .4423828 .5970001 .41636659 .5970001 .3943634 .5970001 .38136292 .6029968 .3753662 .6119995 .36735536 .6230011 .35635377 .647995 .33035279 .647995 .28233338 .647995 .24832154 .61898806 .15029907 .59298709 .09927368 .5669861 .04626465 .5319977 .011245728 .48298646 .011245728 .43598939 .011245728 .40899659 .041259767 .40899659 .09828186 .40899659 .12628174 .41600038 .1572876 .41999818 .17129517L.46199037 .33935548Z"/>
<path id="font_7_1" d="M.33499146 .63612368C.33499146 .6630554 .33299256 .6640625 .30499269 .6640625 .24099732 .6014404 .1499939 .6004486 .10899353 .6004486V.5644531C.1329956 .5644531 .19898987 .5644531 .2539978 .592453V.08203125C.2539978 .04899597 .2539978 .035995485 .1539917 .035995485H.115997318V0C.13398743 .0009918213 .25698854 .0039978029 .2939911 .0039978029 .32499696 .0039978029 .45098878 .0009918213 .47299195 0V.035995485H.43499757C.33499146 .035995485 .33499146 .04899597 .33499146 .08203125V.63612368Z"/>
<path id="font_8_1" d="M.68699648 .32714845C.70199587 .32714845 .72099307 .32714845 .72099307 .34713746 .72099307 .36714173 .70199587 .36714173 .6879883 .36714173H.08898926C.07499695 .36714173 .055999757 .36714173 .055999757 .34713746 .055999757 .32714845 .07499695 .32714845 .08999634 .32714845H.68699648M.6879883 .13284302C.70199587 .13284302 .72099307 .13284302 .72099307 .15284729 .72099307 .17285156 .70199587 .17285156 .68699648 .17285156H.08999634C.07499695 .17285156 .055999757 .17285156 .055999757 .15284729 .055999757 .13284302 .07499695 .13284302 .08898926 .13284302H.6879883Z"/>
<path id="font_6_1" d="M.46798707 .37236024C.46798707 .42637635 .44198609 .4423828 .42399598 .4423828 .39898683 .4423828 .375 .41636659 .375 .3943634 .375 .38136292 .37998963 .3753662 .3909912 .36434938 .4119873 .3443451 .4249878 .31834413 .4249878 .28233338 .4249878 .24032593 .3639984 .011245728 .24699402 .011245728 .19599915 .011245728 .17298889 .04626465 .17298889 .09828186 .17298889 .15429688 .19999695 .22731018 .23098755 .31033326 .23799134 .3273468 .24299622 .34135438 .24299622 .36035157 .24299622 .405365 .21099854 .4423828 .16099549 .4423828 .066986087 .4423828 .0289917 .29733277 .0289917 .28833009 .0289917 .27833558 .038986207 .27833558 .040985109 .27833558 .050994874 .27833558 .051986696 .28033448 .056991579 .29634095 .085998538 .39736939 .1289978 .42037965 .1579895 .42037965 .1659851 .42037965 .18299866 .42037965 .18299866 .3883667 .18299866 .36335755 .17298889 .3363495 .1659851 .31834413 .12199402 .20230103 .10899353 .15629578 .10899353 .11328125 .10899353 .0052490236 .19699097-.0107421879 .24299622-.0107421879 .41099549-.0107421879 .46798707 .32034303 .46798707 .37236024Z"/>
<path id="font_7_2" d="M.5049896 .18203736H.47099305C.46798707 .16001892 .45799256 .100997928 .44499208 .09098816 .43699647 .084991458 .3600006 .084991458 .34599305 .084991458H.1619873C.2669983 .17803955 .3019867 .20603943 .3619995 .25306703 .43598939 .312088 .5049896 .374115 .5049896 .46914674 .5049896 .5900879 .39898683 .6640625 .2709961 .6640625 .14698792 .6640625 .06298828 .57710269 .06298828 .4851532 .06298828 .43414308 .10598755 .42915345 .115997318 .42915345 .13999939 .42915345 .16899109 .44615174 .16899109 .48214723 .16899109 .5001526 .1619873 .53515627 .10998535 .53515627 .14099121 .6060791 .20899964 .62805178 .2559967 .62805178 .35598756 .62805178 .4079895 .5501404 .4079895 .46914674 .4079895 .38212586 .34599305 .3130951 .31399537 .27708436L.07299805 .038986207C.06298828 .02999878 .06298828 .027999878 .06298828 0H.47499085L.5049896 .18203736Z"/>
</defs>
<path transform="matrix(1,0,0,-1,10.696,88.517)" stroke-width=".3985" stroke-linecap="butt" stroke-miterlimit="10" stroke-linejoin="miter" fill="none" stroke="#7f807f" d="M-8.50412 0H158.7423"/>
<path transform="matrix(1,0,0,-1,10.696,88.517)" stroke-width=".79701" stroke-linecap="butt" stroke-miterlimit="10" stroke-linejoin="miter" fill="none" stroke="#7f807f" d="M0 0H65.59633"/>
<path transform="matrix(1,0,0,-1,76.29233,88.517)" d="M6.46242 0C5.66881 .19443 2.18033 1.2962 0 2.49518V-2.49518C2.18033-1.2962 5.66881-.19443 6.46242 0Z" fill="#7f807f"/>
<path transform="matrix(1,0,0,-1,76.29233,88.517)" stroke-width=".79701" stroke-linecap="butt" stroke-miterlimit="10" stroke-linejoin="miter" fill="none" stroke="#7f807f" d="M6.46242 0C5.66881 .19443 2.18033 1.2962 0 2.49518V-2.49518C2.18033-1.2962 5.66881-.19443 6.46242 0Z"/>
<use data-text="p" xlink:href="#font_1_3" transform="matrix(7.9701,0,0,-7.9701,68.55,80.182)" fill="#595959"/>
<use data-text="r" xlink:href="#font_1_4" transform="matrix(7.9701,0,0,-7.9701,73.252368,80.182)" fill="#595959"/>
<use data-text="o" xlink:href="#font_1_2" transform="matrix(7.9701,0,0,-7.9701,76.55199,80.182)" fill="#595959"/>
<use data-text="j" xlink:href="#font_1_1" transform="matrix(7.9701,0,0,-7.9701,81.25435,80.182)" fill="#595959"/>
<use data-text="v" xlink:href="#font_2_1" transform="matrix(5.9776,0,0,-5.9776,83.847,82.229007)" fill="#595959"/>
<use data-text="1" xlink:href="#font_3_1" transform="matrix(4.9813,0,0,-4.9813,87.583,83.381)" fill="#595959"/>
<use data-text="v" xlink:href="#font_4_1" transform="matrix(7.9701,0,0,-7.9701,91.969,80.182)" fill="#595959"/>
<use data-text="2" xlink:href="#font_5_1" transform="matrix(5.9776,0,0,-5.9776,96.093,81.289)" fill="#595959"/>
<path transform="matrix(1,0,0,-1,10.696,88.517)" stroke-width=".79701" stroke-linecap="butt" stroke-miterlimit="10" stroke-linejoin="miter" fill="none" stroke="#0000b3" d="M0 0H133.62851"/>
<path transform="matrix(1,0,0,-1,144.32451,88.517)" d="M6.46242 0C5.66881 .19443 2.18033 1.2962 0 2.49518V-2.49518C2.18033-1.2962 5.66881-.19443 6.46242 0Z" fill="#0000b3"/>
<path transform="matrix(1,0,0,-1,144.32451,88.517)" stroke-width=".79701" stroke-linecap="butt" stroke-miterlimit="10" stroke-linejoin="miter" fill="none" stroke="#0000b3" d="M6.46242 0C5.66881 .19443 2.18033 1.2962 0 2.49518V-2.49518C2.18033-1.2962 5.66881-.19443 6.46242 0Z"/>
<use data-text="w" xlink:href="#font_6_2" transform="matrix(9.9626,0,0,-9.9626,156.147,96.526)"/>
<use data-text="1" xlink:href="#font_7_1" transform="matrix(6.9738,0,0,-6.9738,163.279,98.02)"/>
<use data-text="=" xlink:href="#font_8_1" transform="matrix(9.9626,0,0,-9.9626,170.516,96.526)"/>
<use data-text="v" xlink:href="#font_6_1" transform="matrix(9.9626,0,0,-9.9626,181.03652,96.526)"/>
<use data-text="1" xlink:href="#font_7_1" transform="matrix(6.9738,0,0,-6.9738,185.86101,98.02)"/>
<path transform="matrix(1,0,0,-1,10.696,88.517)" stroke-width=".79701" stroke-linecap="butt" stroke-miterlimit="10" stroke-linejoin="miter" fill="none" stroke="#b30000" d="M0 0 67.9704 67.9704"/>
<path transform="matrix(.7071,-.7071,-.7071,-.7071,78.66638,20.546616)" d="M6.46242 0C5.66881 .19443 2.18033 1.2962 0 2.49518V-2.49518C2.18033-1.2962 5.66881-.19443 6.46242 0Z" fill="#b30000"/>
<path transform="matrix(.7071,-.7071,-.7071,-.7071,78.66638,20.546616)" stroke-width=".79701" stroke-linecap="butt" stroke-miterlimit="10" stroke-linejoin="miter" fill="none" stroke="#b30000" d="M6.46242 0C5.66881 .19443 2.18033 1.2962 0 2.49518V-2.49518C2.18033-1.2962 5.66881-.19443 6.46242 0Z"/>
<use data-text="v" xlink:href="#font_6_1" transform="matrix(9.9626,0,0,-9.9626,71.379,9.602997)"/>
<use data-text="2" xlink:href="#font_7_2" transform="matrix(6.9738,0,0,-6.9738,76.208,11.097)"/>
<path transform="matrix(1,0,0,-1,10.696,88.517)" stroke-width=".79701" stroke-linecap="butt" stroke-miterlimit="10" stroke-linejoin="miter" fill="none" stroke="#005959" d="M73.70186 0V65.59633"/>
<path transform="matrix(0,-1,-1,-0,84.39786,22.92067)" d="M6.46242 0C5.66881 .19443 2.18033 1.2962 0 2.49518V-2.49518C2.18033-1.2962 5.66881-.19443 6.46242 0Z" fill="#005959"/>
<path transform="matrix(0,-1,-1,-0,84.39786,22.92067)" stroke-width=".79701" stroke-linecap="butt" stroke-miterlimit="10" stroke-linejoin="miter" fill="none" stroke="#005959" d="M6.46242 0C5.66881 .19443 2.18033 1.2962 0 2.49518V-2.49518C2.18033-1.2962 5.66881-.19443 6.46242 0Z"/>
<use data-text="w" xlink:href="#font_6_2" transform="matrix(9.9626,0,0,-9.9626,90.951,53.064)"/>
<use data-text="2" xlink:href="#font_7_2" transform="matrix(6.9738,0,0,-6.9738,98.08299,54.559)"/>
<path transform="matrix(1,0,0,-1,10.696,88.517)" stroke-width=".3985" stroke-linecap="butt" stroke-dasharray="2.98883,2.98883" stroke-miterlimit="10" stroke-linejoin="miter" fill="none" stroke="#7f807f" d="M73.70186 73.70186V0"/>
<path transform="matrix(1,0,0,-1,10.696,88.517)" stroke-width=".3985" stroke-linecap="butt" stroke-miterlimit="10" stroke-linejoin="miter" fill="none" stroke="#000000" d="M66.61517 0V7.08669H73.70186"/>
</svg>
