<svg xmlns="http://www.w3.org/2000/svg" xmlns:xlink="http://www.w3.org/1999/xlink" xmlns:inkscape="http://www.inkscape.org/namespaces/inkscape" version="1.1" width="179.156" height="117.355" viewBox="0 0 179.156 117.355">
<defs>
<path id="font_1_3" d="M.644989 .69506838C.644989 .69807437 .6429901 .7050781 .6339874 .7050781 .6289978 .7050781 .6279907 .70407107 .6159973 .6900635L.56799319 .6330414C.5419922 .68006899 .48999024 .7050781 .4249878 .7050781 .2979889 .7050781 .17799378 .58999636 .17799378 .4689026 .17799378 .38783265 .23098755 .34179688 .28199769 .32678224L.3889923 .2987671C.42599488 .2897644 .48098756 .27474977 .48098756 .19267273 .48098756 .1026001 .39898683 .008529663 .30099488 .008529663 .23699951 .008529663 .12599182 .030548096 .12599182 .15464783 .12599182 .17866516 .1309967 .2026825 .13198853 .20869446 .1329956 .21269226 .13398743 .21369934 .13398743 .21569824 .13398743 .22570801 .1269989 .22669983 .12199402 .22669983 .116989139 .22669983 .114990238 .22570801 .11199951 .22270203 .10798645 .21870423 .051986696-.009475708 .051986696-.012466431 .051986696-.018463135 .056991579-.022460938 .06298828-.022460938 .067993167-.022460938 .068984989-.021469117 .08099365-.007461548L.12998963 .049560548C.17298889-.008468628 .24099732-.022460938 .29899598-.022460938 .43499757-.022460938 .5529938 .11061096 .5529938 .2347107 .5529938 .30377198 .5189972 .33779908 .5039978 .35180665 .48098756 .37483216 .46598817 .37882997 .3769989 .40185548 .35499574 .40785218 .31900025 .41786195 .30999757 .41986085 .2829895 .42886354 .24899292 .457901 .24899292 .51094058 .24899292 .59199526 .32899476 .677063 .42399598 .677063 .5069885 .677063 .56799319 .6340332 .56799319 .52194216 .56799319 .48991395 .56399539 .47190858 .56399539 .4658966 .56399539 .4649048 .56399539 .45588685 .57598879 .45588685 .58599856 .45588685 .58699038 .45889283 .59098818 .47590638L.644989 .69506838Z"/>
<path id="font_2_3" d="M.68699648 .32714845C.70199587 .32714845 .72099307 .32714845 .72099307 .34713746 .72099307 .36714173 .70199587 .36714173 .6879883 .36714173H.08898926C.07499695 .36714173 .055999757 .36714173 .055999757 .34713746 .055999757 .32714845 .07499695 .32714845 .08999634 .32714845H.68699648M.6879883 .13284302C.70199587 .13284302 .72099307 .13284302 .72099307 .15284729 .72099307 .17285156 .70199587 .17285156 .68699648 .17285156H.08999634C.07499695 .17285156 .055999757 .17285156 .055999757 .15284729 .055999757 .13284302 .07499695 .13284302 .08898926 .13284302H.6879883Z"/>
<path id="font_1_2" d="M.375 .6136017C.3809967 .63760378 .38398744 .6476135 .40299989 .65060427 .4119873 .6516113 .44400025 .6516113 .46398927 .6516113 .5349884 .6516113 .6459961 .6516113 .6459961 .5525818 .6459961 .51856997 .6299896 .44955445 .59098818 .41055299 .5649872 .38453675 .5119934 .35253907 .42199708 .35253907H.30999757L.375 .6136017M.5189972 .33953858C.6199951 .3615265 .7389984 .43154908 .7389984 .5325775 .7389984 .61860659 .6489868 .6826172 .5179901 .6826172H.23298645C.21299744 .6826172 .20399475 .6826172 .20399475 .6626129 .20399475 .6516113 .21299744 .6516113 .23199463 .6516113 .23399353 .6516113 .25299073 .6516113 .269989 .6496124 .28799439 .6476135 .29699708 .64660647 .29699708 .63360598 .29699708 .62960818 .29599 .6266022 .29299928 .6145935L.15899658 .07752991C.14898682 .038528444 .14698792 .030532837 .067993167 .030532837 .049987794 .030532837 .040985109 .030532837 .040985109 .010528564 .040985109-.00047302247 .052993776-.00047302247 .054992677-.00047302247 .08299255-.00047302247 .15299988 .002532959 .18099976 .002532959 .20899964 .002532959 .27999879-.00047302247 .30799867-.00047302247 .31599427-.00047302247 .32798768-.00047302247 .32798768 .01953125 .32798768 .030532837 .31900025 .030532837 .2999878 .030532837 .2630005 .030532837 .23498535 .030532837 .23498535 .048538209 .23498535 .054534913 .23699951 .059524537 .23799134 .0655365L.3039856 .3305359H.4229889C.5139923 .3305359 .5319977 .27453614 .5319977 .23953247 .5319977 .22453308 .5239868 .19352722 .5179901 .17053223 .5109863 .14253235 .5019989 .105529788 .5019989 .08552551 .5019989-.022460938 .621994-.022460938 .6349945-.022460938 .7200012-.022460938 .7549896 .07853699 .7549896 .0925293 .7549896 .104537967 .74398806 .104537967 .7429962 .104537967 .73399356 .104537967 .7319946 .09753418 .7299957 .090530399 .7049866 .016525269 .6619873-.00047302247 .6389923-.00047302247 .60598757-.00047302247 .598999 .021530152 .598999 .060531618 .598999 .091537479 .6049957 .14253235 .60899356 .17453003 .61099246 .1885376 .61299136 .20753479 .61299136 .2215271 .61299136 .2985382 .54599 .3295288 .5189972 .33953858Z"/>
<path id="font_2_1" d="M.33099366-.2400055C.33099366-.23701477 .33099366-.23500061 .31399537-.21800232 .18899536-.0920105 .15699768 .09700012 .15699768 .25 .15699768 .42399598 .19499207 .59799197 .31799317 .72299197 .33099366 .73498538 .33099366 .7369995 .33099366 .73999026 .33099366 .746994 .32699586 .75 .32099916 .75 .31098939 .75 .22099304 .6819916 .1619873 .5549927 .11099243 .44499208 .09899902 .33399964 .09899902 .25 .09899902 .17199707 .10998535 .050994874 .16499329-.06201172 .22499085-.18501282 .31098939-.25 .32099916-.25 .32699586-.25 .33099366-.24700928 .33099366-.2400055Z"/>
<path id="font_1_1" d="M.1789856 .114868167C.13899231 .047973634 .099990848 .033981325 .055999757 .0309906 .04399109 .02999878 .034988405 .02999878 .034988405 .010986328 .034988405 .004989624 .039993287 0 .04798889 0 .07499695 0 .10598755 .0029907227 .13398743 .0029907227 .16699219 .0029907227 .20199585 0 .23399353 0 .23999024 0 .25299073 0 .25299073 .018997193 .25299073 .02999878 .24398804 .0309906 .23699951 .0309906 .21398926 .032989503 .18998719 .04096985 .18998719 .06593323 .18998719 .077926639 .19599915 .088897708 .20399475 .102890018L.27999879 .23068238H.5309906C.5329895 .2097168 .5469971 .07392883 .5469971 .063949588 .5469971 .033981325 .49499513 .0309906 .47499085 .0309906 .46099855 .0309906 .45098878 .0309906 .45098878 .010986328 .45098878 0 .46299745 0 .46499635 0 .5059967 0 .548996 .0029907227 .58999636 .0029907227 .61499026 .0029907227 .6779938 0 .7029877 0 .70899966 0 .72099307 0 .72099307 .019989014 .72099307 .0309906 .71099856 .0309906 .69799807 .0309906 .6359863 .0309906 .6359863 .037979127 .6329956 .06694031L.57199099 .691803C.56999209 .71180728 .56999209 .7158203 .5529938 .7158203 .5369873 .7158203 .5329895 .7088165 .5269928 .69880679L.1789856 .114868167M.29899598 .26168824 .49598695 .5917816 .5279999 .26168824H.29899598Z"/>
<path id="font_2_2" d="M.2889862 .25C.2889862 .32798768 .27799989 .44898988 .22299195 .56199648 .16299439 .68499758 .07699585 .75 .066986087 .75 .06098938 .75 .056991579 .74598696 .056991579 .73999026 .056991579 .7369995 .056991579 .73498538 .07598877 .71699526 .17399597 .6179962 .23098755 .45899964 .23098755 .25 .23098755 .07899475 .19400025-.09700012 .069992069-.2230072 .056991579-.23500061 .056991579-.23701477 .056991579-.2400055 .056991579-.2460022 .06098938-.25 .066986087-.25 .07699585-.25 .16699219-.18200684 .22599793-.055007936 .2769928 .054992677 .2889862 .16600037 .2889862 .25Z"/>
<path id="font_1_4" d="M.23899842 .68333438C.23899842 .6843262 .23899842 .69433596 .22599793 .69433596 .20298767 .69433596 .12998963 .6863251 .10398865 .6843262 .09599304 .68333438 .084991458 .6823273 .084991458 .6643219 .084991458 .6523285 .09399414 .6523285 .10899353 .6523285 .15699768 .6523285 .15899658 .6453247 .15899658 .6353302 .15899658 .6283264 .1499939 .5943451 .14498902 .573349L.06298828 .24731446C.050994874 .1973114 .04699707 .18130493 .04699707 .14628601 .04699707 .05126953 .099990848-.0107421879 .17399597-.0107421879 .2919922-.0107421879 .4149933 .1382904 .4149933 .28233338 .4149933 .37335206 .3619995 .4423828 .28199769 .4423828 .23599243 .4423828 .19499207 .41337586 .16499329 .38235475L.23899842 .68333438M.14498902 .30534364C.15098572 .3273468 .15098572 .3293457 .1599884 .3403473 .20899964 .405365 .2539978 .42037965 .27999879 .42037965 .31599427 .42037965 .34298707 .3903656 .34298707 .32633973 .34298707 .26733399 .30999757 .15229798 .2919922 .11428833 .25898744 .04725647 .21299744 .011245728 .17399597 .011245728 .13999939 .011245728 .10699463 .038253786 .10699463 .11227417 .10699463 .13128662 .10699463 .15029907 .12298584 .21331787L.14498902 .30534364Z"/>
<path id="font_1_5" d="M.33399964 .30233766C.33999635 .32835389 .36299134 .42037965 .43299867 .42037965 .43798829 .42037965 .46199037 .42037965 .48298646 .40734864 .45498658 .402359 .43499757 .37734986 .43499757 .35334779 .43499757 .33735658 .44599916 .31835938 .47299195 .31835938 .49499513 .31835938 .5269928 .3363495 .5269928 .37635804 .5269928 .42837525 .46798707 .4423828 .43399049 .4423828 .37599183 .4423828 .34098817 .38935853 .32899476 .36634828 .3039856 .43237306 .25 .4423828 .22099304 .4423828 .116989139 .4423828 .05999756 .3133545 .05999756 .28834535 .05999756 .27833558 .069992069 .27833558 .07199097 .27833558 .07998657 .27833558 .08299255 .28033448 .084991458 .28933717 .11898804 .39535523 .18499756 .42037965 .21899414 .42037965 .23799134 .42037965 .272995 .4113617 .272995 .35334779 .272995 .32235719 .2559967 .25532533 .21899414 .11528015 .20298767 .053268434 .16799927 .011245728 .12399292 .011245728 .117996219 .011245728 .09498596 .011245728 .07398987 .024276734 .09899902 .029266358 .12098694 .05027771 .12098694 .07827759 .12098694 .105270389 .09899902 .11328125 .083999637 .11328125 .053985597 .11328125 .0289917 .08728027 .0289917 .055267335 .0289917 .009246826 .07899475-.0107421879 .12298584-.0107421879 .18899536-.0107421879 .22499085 .059280397 .22799683 .0652771 .23999024 .028274537 .27598573-.0107421879 .33599855-.0107421879 .43899537-.0107421879 .49598695 .118270877 .49598695 .14328003 .49598695 .1532898 .4869995 .1532898 .48399354 .1532898 .47499085 .1532898 .47299195 .14929199 .47099305 .14228821 .43798829 .03527832 .36999513 .011245728 .33799745 .011245728 .29899598 .011245728 .2829895 .043273927 .2829895 .07727051 .2829895 .09927368 .2889862 .121276859 .2999878 .16529846L.33399964 .30233766Z"/>
<path id="font_3_1" d="M.6589966 .23046875C.6759949 .23046875 .69400027 .23046875 .69400027 .25045777 .69400027 .27046205 .6759949 .27046205 .6589966 .27046205H.117996219C.100997928 .27046205 .08299255 .27046205 .08299255 .25045777 .08299255 .23046875 .100997928 .23046875 .117996219 .23046875H.6589966Z"/>
</defs>
<path transform="matrix(1,0,0,-1,64.554,75.478008)" d="M-62.36288-28.3468 79.37114-39.68535 102.04868 17.00824-39.68535 28.3468Z" fill="#ebf5f5"/>
<path transform="matrix(1,0,0,-1,64.554,75.478008)" stroke-width=".3985" stroke-linecap="butt" stroke-miterlimit="10" stroke-linejoin="miter" fill="none" stroke="#003333" d="M-62.36288-28.3468 79.37114-39.68535 102.04868 17.00824-39.68535 28.3468Z"/>
<use data-text="S" xlink:href="#font_1_3" transform="matrix(9.9626,0,0,-9.9626,131.014,109.15001)" fill="#003333"/>
<use data-text="=" xlink:href="#font_2_3" transform="matrix(9.9626,0,0,-9.9626,140.45856,109.15001)" fill="#003333"/>
<use data-text="R" xlink:href="#font_1_2" transform="matrix(9.9626,0,0,-9.9626,150.97907,109.15001)" fill="#003333"/>
<use data-text="(" xlink:href="#font_2_1" transform="matrix(9.9626,0,0,-9.9626,158.62038,109.15001)" fill="#003333"/>
<use data-text="A" xlink:href="#font_1_1" transform="matrix(9.9626,0,0,-9.9626,162.49584,109.15001)" fill="#003333"/>
<use data-text=")" xlink:href="#font_2_2" transform="matrix(9.9626,0,0,-9.9626,169.96779,109.15001)" fill="#003333"/>
<path transform="matrix(1,0,0,-1,64.554,75.478008)" stroke-width=".79701" stroke-linecap="butt" stroke-miterlimit="10" stroke-linejoin="miter" fill="none" stroke="#b30000" d="M0 0 49.76102 53.58896"/>
<path transform="matrix(.68042,-.73277,-.73277,-.68042,114.31502,21.889065)" d="M6.46242 0C5.66881 .19443 2.18033 1.2962 0 2.49518V-2.49518C2.18033-1.2962 5.66881-.19443 6.46242 0Z" fill="#b30000"/>
<path transform="matrix(.68042,-.73277,-.73277,-.68042,114.31502,21.889065)" stroke-width=".79701" stroke-linecap="butt" stroke-miterlimit="10" stroke-linejoin="miter" fill="none" stroke="#b30000" d="M6.46242 0C5.66881 .19443 2.18033 1.2962 0 2.49518V-2.49518C2.18033-1.2962 5.66881-.19443 6.46242 0Z"/>
<use data-text="b" xlink:href="#font_1_4" transform="matrix(9.9626,0,0,-9.9626,111.835,12.23201)"/>
<path transform="matrix(1,0,0,-1,64.554,75.478008)" stroke-width=".79701" stroke-linecap="butt" stroke-miterlimit="10" stroke-linejoin="miter" fill="none" stroke="#0000b3" d="M0 0 37.49156-9.3729"/>
<path transform="matrix(.97014,.24251,.24251,-.97014,102.04556,84.85091)" d="M6.46242 0C5.66881 .19443 2.18033 1.2962 0 2.49518V-2.49518C2.18033-1.2962 5.66881-.19443 6.46242 0Z" fill="#0000b3"/>
<path transform="matrix(.97014,.24251,.24251,-.97014,102.04556,84.85091)" stroke-width=".79701" stroke-linecap="butt" stroke-miterlimit="10" stroke-linejoin="miter" fill="none" stroke="#0000b3" d="M6.46242 0C5.66881 .19443 2.18033 1.2962 0 2.49518V-2.49518C2.18033-1.2962 5.66881-.19443 6.46242 0Z"/>
<use data-text="A" xlink:href="#font_1_1" transform="matrix(9.9626,0,0,-9.9626,103.325,97.344)"/>
<use data-text="x" xlink:href="#font_1_5" transform="matrix(9.9626,0,0,-9.9626,110.79695,97.344)"/>
<path transform="matrix(1,0,0,-1,64.554,75.478008)" stroke-width=".79701" stroke-linecap="butt" stroke-miterlimit="10" stroke-linejoin="miter" fill="none" stroke="#7f807f" d="M45.35506-11.33855 54.15256 51.50136"/>
<path transform="matrix(.13863,-.99033,-.99033,-.13863,118.70654,23.976666)" d="M6.46242 0C5.66881 .19443 2.18033 1.2962 0 2.49518V-2.49518C2.18033-1.2962 5.66881-.19443 6.46242 0Z" fill="#7f807f"/>
<path transform="matrix(.13863,-.99033,-.99033,-.13863,118.70654,23.976666)" stroke-width=".79701" stroke-linecap="butt" stroke-miterlimit="10" stroke-linejoin="miter" fill="none" stroke="#7f807f" d="M6.46242 0C5.66881 .19443 2.18033 1.2962 0 2.49518V-2.49518C2.18033-1.2962 5.66881-.19443 6.46242 0Z"/>
<use data-text="A" xlink:href="#font_1_1" transform="matrix(9.9626,0,0,-9.9626,118.588,54.428007)"/>
<use data-text="x" xlink:href="#font_1_5" transform="matrix(9.9626,0,0,-9.9626,126.05995,54.428007)"/>
<use data-text="&#x2212;" xlink:href="#font_3_1" transform="matrix(9.9626,0,0,-9.9626,133.97026,54.428007)"/>
<use data-text="b" xlink:href="#font_1_4" transform="matrix(9.9626,0,0,-9.9626,143.93286,54.428007)"/>
<path transform="matrix(1,0,0,-1,64.554,75.478008)" stroke-width=".3985" stroke-linecap="butt" stroke-miterlimit="10" stroke-linejoin="miter" fill="none" stroke="#000000" d="M52.158-13.0397 53.29213-5.95302 46.20541-4.25183"/>
</svg>
