<svg xmlns="http://www.w3.org/2000/svg" xmlns:xlink="http://www.w3.org/1999/xlink" xmlns:inkscape="http://www.inkscape.org/namespaces/inkscape" version="1.1" width="154.62" height="100.933" viewBox="0 0 154.62 100.933">
<defs>
<path id="font_1_2" d="M.46798707 .37236024C.46798707 .42637635 .44198609 .4423828 .42399598 .4423828 .39898683 .4423828 .375 .41636659 .375 .3943634 .375 .38136292 .37998963 .3753662 .3909912 .36434938 .4119873 .3443451 .4249878 .31834413 .4249878 .28233338 .4249878 .24032593 .3639984 .011245728 .24699402 .011245728 .19599915 .011245728 .17298889 .04626465 .17298889 .09828186 .17298889 .15429688 .19999695 .22731018 .23098755 .31033326 .23799134 .3273468 .24299622 .34135438 .24299622 .36035157 .24299622 .405365 .21099854 .4423828 .16099549 .4423828 .066986087 .4423828 .0289917 .29733277 .0289917 .28833009 .0289917 .27833558 .038986207 .27833558 .040985109 .27833558 .050994874 .27833558 .051986696 .28033448 .056991579 .29634095 .085998538 .39736939 .1289978 .42037965 .1579895 .42037965 .1659851 .42037965 .18299866 .42037965 .18299866 .3883667 .18299866 .36335755 .17298889 .3363495 .1659851 .31834413 .12199402 .20230103 .10899353 .15629578 .10899353 .11328125 .10899353 .0052490236 .19699097-.0107421879 .24299622-.0107421879 .41099549-.0107421879 .46798707 .32034303 .46798707 .37236024Z"/>
<path id="font_2_3" d="M.17199707 .37635804V.4423828L.027999878 .43138124V.40037538C.09899902 .40037538 .10598755 .3943634 .10598755 .35035707V-.11816406C.10598755-.16334534 .09498596-.16334534 .027999878-.16334534V-.19433594C.06199646-.19334412 .11399841-.19134522 .13999939-.19134522 .16699219-.19134522 .21798706-.19334412 .25299073-.19433594V-.16334534C.18598938-.16334534 .1749878-.16334534 .1749878-.11816406V.05026245 .059265138C.17999268 .043258668 .22200012-.0107421879 .2979889-.0107421879 .4169922-.0107421879 .5209961 .08728027 .5209961 .2163086 .5209961 .34335328 .42399598 .4423828 .31199647 .4423828 .23399353 .4423828 .19198609 .39837647 .17199707 .37635804M.1749878 .11428833V.33735658C.20399475 .3883667 .25299073 .41737367 .3039856 .41737367 .3769989 .41737367 .43798829 .3293457 .43798829 .2163086 .43798829 .09527588 .36799623 .011245728 .2939911 .011245728 .2539978 .011245728 .21598816 .03125 .18899536 .072265628 .1749878 .09327698 .1749878 .0942688 .1749878 .11428833Z"/>
<path id="font_2_4" d="M.16699219 .3323059V.4423828L.027999878 .43138124V.40037538C.09799194 .40037538 .10598755 .39337159 .10598755 .34431459V.076034549C.10598755 .0309906 .09498596 .0309906 .027999878 .0309906V0C.066986087 .0009918213 .11399841 .0029907227 .14199829 .0029907227 .18199158 .0029907227 .22898865 .0029907227 .2689972 0V.0309906H.24798584C.17399597 .0309906 .17199707 .042007448 .17199707 .07803345V.232193C.17199707 .33128358 .21398926 .42037965 .2899933 .42037965 .29699708 .42037965 .29899598 .42037965 .30099488 .41937257 .2979889 .41838075 .27799989 .4063568 .27799989 .38034059 .27799989 .35231019 .29899598 .33729554 .32099916 .33729554 .33898927 .33729554 .3639984 .3493042 .3639984 .3813324 .3639984 .41337586 .33299256 .4423828 .2899933 .4423828 .21699524 .4423828 .18099976 .37535096 .16699219 .3323059Z"/>
<path id="font_2_2" d="M.47099305 .21424866C.47099305 .34223939 .37098695 .4482422 .25 .4482422 .125 .4482422 .027999878 .3392334 .027999878 .21424866 .027999878 .085250858 .13198853-.0107421879 .24899292-.0107421879 .36999513-.0107421879 .47099305 .087249759 .47099305 .21424866M.25 .014251709C.20698548 .014251709 .16299439 .035247804 .13598633 .08125305 .11099243 .12524414 .11099243 .18624878 .11099243 .22224427 .11099243 .26124574 .11099243 .31523133 .1349945 .35923768 .1619873 .40522767 .20899964 .426239 .24899292 .426239 .29299928 .426239 .33599855 .40423585 .3619995 .36123658 .3880005 .3182373 .3880005 .26023866 .3880005 .22224427 .3880005 .18624878 .3880005 .13224793 .3659973 .08824158 .34399415 .04324341 .2999878 .014251709 .25 .014251709Z"/>
<path id="font_2_1" d="M.20999146 .4423828 .057998659 .43138124V.40037538C.1349945 .40037538 .14399719 .39337159 .14399719 .34432984V-.051971437C.14399719-.09700012 .1349945-.18309021 .070999149-.18309021 .06599426-.18309021 .042999269-.18309021 .016998291-.17001343 .03199768-.16600037 .051986696-.1519928 .051986696-.125 .051986696-.09899902 .033996583-.07899475 .005996704-.07899475-.022003174-.07899475-.040008546-.09899902-.040008546-.125-.040008546-.17704773 .015991211-.20507813 .07299805-.20507813 .147995-.20507813 .20999146-.14100647 .20999146-.049972536V.4423828M.20999146 .6159363C.20999146 .64494326 .18598938 .6689453 .15699768 .6689453 .12799073 .6689453 .10398865 .64494326 .10398865 .6159363 .10398865 .5869446 .12799073 .5629425 .15699768 .5629425 .18598938 .5629425 .20999146 .5869446 .20999146 .6159363Z"/>
<path id="font_3_1" d="M.5339966 .3633728C.5339966 .44140626 .4869995 .44239808 .48399354 .44239808 .45799256 .44239808 .42999269 .41540528 .42999269 .38938905 .42999269 .3723755 .43998719 .36437989 .44699098 .35836793 .46398927 .3443756 .48399354 .31835938 .48399354 .27833558 .48399354 .23332215 .41799928 .018234253 .29899598 .018234253 .21798706 .018234253 .21798706 .09025574 .21798706 .10726929 .21798706 .1532898 .23599243 .20930481 .272995 .3023529 .2809906 .32336427 .2869873 .33836366 .2869873 .3553772 .2869873 .4073944 .24299622 .44140626 .19198609 .44140626 .09199524 .44140626 .04699707 .3043518 .04699707 .28834535 .04699707 .27534486 .06098938 .27534486 .06399536 .27534486 .07798767 .27534486 .07899475 .28033448 .08198547 .29135133 .10598755 .37338258 .14898682 .4133911 .18899536 .4133911 .20599365 .4133911 .21398926 .40238954 .21398926 .37838746 .21398926 .3553772 .20599365 .33436585 .19599915 .3113556 .15299988 .20030213 .14199829 .1572876 .14199829 .121276859 .14199829 .022232056 .21998596-.009765625 .29599-.009765625 .46398927-.009765625 .5339966 .28134156 .5339966 .3633728Z"/>
<path id="font_1_1" d="M.34999085 .056259157C.36099244 .015258789 .3959961-.0107421879 .43899537-.0107421879 .47399903-.0107421879 .49699403 .012252808 .5130005 .044265748 .5299988 .08027649 .54299929 .14129639 .54299929 .14329529 .54299929 .1532898 .5339966 .1532898 .5309906 .1532898 .5209961 .1532898 .519989 .14929199 .5169983 .13528443 .5029907 .07926941 .48399354 .011245728 .44198609 .011245728 .42099 .011245728 .41099549 .024261475 .41099549 .057266237 .41099549 .07926941 .4229889 .12628174 .43099977 .16130066L.45899964 .2693329C.46199037 .28433229 .47200013 .32234193 .47599793 .3373413 .48098756 .36035157 .4909973 .3983612 .4909973 .40437318 .4909973 .42237855 .47698976 .43138124 .46199037 .43138124 .45700074 .43138124 .43099977 .43037416 .4229889 .3963623 .4039917 .323349 .3600006 .14828491 .34799195 .09527588 .34700013 .091278079 .30699159 .011245728 .23399353 .011245728 .18199158 .011245728 .17199707 .056259157 .17199707 .09327698 .17199707 .14929199 .19999695 .22831726 .22599793 .29733277 .23799134 .3273468 .24299622 .34135438 .24299622 .36035157 .24299622 .405365 .21099854 .4423828 .16099549 .4423828 .06599426 .4423828 .0289917 .29733277 .0289917 .28833009 .0289917 .27833558 .038986207 .27833558 .040985109 .27833558 .050994874 .27833558 .051986696 .28033448 .056991579 .29634095 .08198547 .38336183 .11999512 .42037965 .1579895 .42037965 .16699219 .42037965 .18299866 .41937257 .18299866 .38735963 .18299866 .36335755 .17199707 .3343506 .1659851 .31933595 .1289978 .2203064 .10798645 .15829468 .10798645 .10928345 .10798645 .014251709 .1769867-.0107421879 .23098755-.0107421879 .29699708-.0107421879 .33299256 .03425598 .34999085 .056259157Z"/>
</defs>
<path transform="matrix(1,0,0,-1,10.696,81.154)" stroke-width=".3985" stroke-linecap="butt" stroke-miterlimit="10" stroke-linejoin="miter" fill="none" stroke="#7f807f" d="M-8.50412 0H141.73404"/>
<path transform="matrix(1,0,0,-1,10.696,81.154)" stroke-width=".79701" stroke-linecap="butt" stroke-miterlimit="10" stroke-linejoin="miter" fill="none" stroke="#b30000" d="M0 0H110.95097"/>
<path transform="matrix(1,0,0,-1,121.64697,81.154)" d="M6.46242 0C5.66881 .19443 2.18033 1.2962 0 2.49518V-2.49518C2.18033-1.2962 5.66881-.19443 6.46242 0Z" fill="#b30000"/>
<path transform="matrix(1,0,0,-1,121.64697,81.154)" stroke-width=".79701" stroke-linecap="butt" stroke-miterlimit="10" stroke-linejoin="miter" fill="none" stroke="#b30000" d="M6.46242 0C5.66881 .19443 2.18033 1.2962 0 2.49518V-2.49518C2.18033-1.2962 5.66881-.19443 6.46242 0Z"/>
<use data-text="v" xlink:href="#font_1_2" transform="matrix(9.9626,0,0,-9.9626,133.47,83.298999)"/>
<path transform="matrix(1,0,0,-1,10.696,81.154)" stroke-width=".79701" stroke-linecap="butt" stroke-miterlimit="10" stroke-linejoin="miter" fill="none" stroke="#0000b3" d="M0 0 78.71144 62.96893"/>
<path transform="matrix(.78082,-.62466,-.62466,-.78082,89.40744,18.185078)" d="M6.46242 0C5.66881 .19443 2.18033 1.2962 0 2.49518V-2.49518C2.18033-1.2962 5.66881-.19443 6.46242 0Z" fill="#0000b3"/>
<path transform="matrix(.78082,-.62466,-.62466,-.78082,89.40744,18.185078)" stroke-width=".79701" stroke-linecap="butt" stroke-miterlimit="10" stroke-linejoin="miter" fill="none" stroke="#0000b3" d="M6.46242 0C5.66881 .19443 2.18033 1.2962 0 2.49518V-2.49518C2.18033-1.2962 5.66881-.19443 6.46242 0Z"/>
<path transform="matrix(1,0,0,-1,10.696,81.154)" stroke-width=".79701" stroke-linecap="butt" stroke-miterlimit="10" stroke-linejoin="miter" fill="none" stroke="#005959" d="M0 0H76.93489"/>
<path transform="matrix(1,0,0,-1,87.63089,81.154)" d="M6.46242 0C5.66881 .19443 2.18033 1.2962 0 2.49518V-2.49518C2.18033-1.2962 5.66881-.19443 6.46242 0Z" fill="#005959"/>
<path transform="matrix(1,0,0,-1,87.63089,81.154)" stroke-width=".79701" stroke-linecap="butt" stroke-miterlimit="10" stroke-linejoin="miter" fill="none" stroke="#005959" d="M6.46242 0C5.66881 .19443 2.18033 1.2962 0 2.49518V-2.49518C2.18033-1.2962 5.66881-.19443 6.46242 0Z"/>
<use data-text="p" xlink:href="#font_2_3" transform="matrix(9.9626,0,0,-9.9626,38.989,93.185)"/>
<use data-text="r" xlink:href="#font_2_4" transform="matrix(9.9626,0,0,-9.9626,44.528207,93.185)"/>
<use data-text="o" xlink:href="#font_2_2" transform="matrix(9.9626,0,0,-9.9626,48.433546,93.185)"/>
<use data-text="j" xlink:href="#font_2_1" transform="matrix(9.9626,0,0,-9.9626,53.97275,93.185)"/>
<use data-text="v" xlink:href="#font_3_1" transform="matrix(6.9738,0,0,-6.9738,57.004999,95.619998)"/>
<use data-text="u" xlink:href="#font_1_1" transform="matrix(9.9626,0,0,-9.9626,61.738,93.185)"/>
<path transform="matrix(1,0,0,-1,10.696,81.154)" stroke-width=".3985" stroke-linecap="butt" stroke-dasharray="2.98883,2.98883" stroke-miterlimit="10" stroke-linejoin="miter" fill="none" stroke="#7f807f" d="M85.04042 68.03217V0"/>
<path transform="matrix(1,0,0,-1,10.696,81.154)" stroke-width=".3985" stroke-linecap="butt" stroke-miterlimit="10" stroke-linejoin="miter" fill="none" stroke="#000000" d="M77.95372 0V7.08669H85.04042"/>
<use data-text="u" xlink:href="#font_1_1" transform="matrix(9.9626,0,0,-9.9626,99.255,9.602997)"/>
</svg>
